<svg xmlns="http://www.w3.org/2000/svg" viewBox="0 0 512 512" width="512" height="512">
  
  <rect width="512" height="512" fill="#F59E0B"></rect>

  
  <g stroke="#FFFFFF" stroke-linecap="round" stroke-width="6" opacity="0.25">
    <line x1="100" y1="310" x2="320" y2="90"></line>
    <line x1="100" y1="310" x2="380" y2="150"></line>
    <line x1="160" y1="145" x2="320" y2="90"></line>
    <line x1="160" y1="145" x2="380" y2="150"></line>
    <line x1="248" y1="58" x2="380" y2="150"></line>
    <line x1="320" y1="90" x2="395" y2="265"></line>
  </g>

  
  <g fill="none" stroke="#FFFFFF" stroke-linecap="round" stroke-width="8" opacity="0.85">
    <path d="M 100,310 Q 95,225 160,145"></path>
    <path d="M 160,145 Q 188,88 248,58"></path>
    <path d="M 248,58 Q 285,60 320,90"></path>
    <path d="M 320,90 Q 355,110 380,150"></path>
    <path d="M 380,150 Q 400,200 395,265"></path>
  </g>

  
  <g stroke="#FFFFFF" stroke-linecap="round" stroke-width="7" opacity="0.8">
    <line x1="256" y1="420" x2="100" y2="310"></line>
    <line x1="256" y1="420" x2="160" y2="145"></line>
    <line x1="256" y1="420" x2="248" y2="58"></line>
    <line x1="256" y1="420" x2="320" y2="90"></line>
    <line x1="256" y1="420" x2="380" y2="150"></line>
    <line x1="256" y1="420" x2="395" y2="265"></line>
  </g>

  
  <g fill="none" stroke="#FFFFFF" stroke-linecap="round" stroke-width="6" opacity="0.55">
    <path d="M 100,310 Q 240,345 395,265"></path>
  </g>

  
  <circle cx="100" cy="310" r="30" fill="none" stroke="#FFFFFF" stroke-width="4" opacity="0.28"></circle>
  <circle cx="100" cy="310" r="17" fill="#FFFFFF"></circle>
  <circle cx="160" cy="145" r="26" fill="none" stroke="#FFFFFF" stroke-width="4" opacity="0.28"></circle>
  <circle cx="160" cy="145" r="15" fill="#FFFFFF"></circle>
  <circle cx="248" cy="58" r="34" fill="none" stroke="#FFFFFF" stroke-width="4.5" opacity="0.32"></circle>
  <circle cx="248" cy="58" r="19" fill="#FFFFFF"></circle>
  <circle cx="320" cy="90" r="24" fill="none" stroke="#FFFFFF" stroke-width="4" opacity="0.28"></circle>
  <circle cx="320" cy="90" r="14" fill="#FFFFFF"></circle>
  <circle cx="380" cy="150" r="20" fill="none" stroke="#FFFFFF" stroke-width="3.5" opacity="0.25"></circle>
  <circle cx="380" cy="150" r="11" fill="#FFFFFF"></circle>
  <circle cx="395" cy="265" r="18" fill="none" stroke="#FFFFFF" stroke-width="3.5" opacity="0.22"></circle>
  <circle cx="395" cy="265" r="10" fill="#FFFFFF"></circle>
  <circle cx="256" cy="420" r="26" fill="none" stroke="#FFFFFF" stroke-width="4" opacity="0.25"></circle>
  <circle cx="256" cy="420" r="14" fill="#FFFFFF"></circle>
</svg>